<svg xmlns='http://www.w3.org/2000/svg' version='1.1' width='796px' height='575px'><svg xmlns="http://www.w3.org/2000/svg" id="graphic" font-family="Source Sans Pro" style="position: absolute;" width="775" height="530.203125" x="10.5" y="34.296875"><g class="facets"><g class="facet" transform="translate(0,14)" opacity="1"><g class="fl-chart"><rect class="fl-chart-debug-rectangle" x="0" y="0" style="stroke-width: 1px; fill: none; display: none; stroke: red;" width="761" height="516.203125"/><clipPath class="fl-data-clip-path" id="fl-chart-layout-1-clip-path"><rect x="96.68392944335938" y="18" width="617.7969017028809" height="469.003125"/></clipPath><clipPath class="fl-grid-clip-path" id="fl-chart-layout-1-grid-clip-path"><rect x="95.68392944335938" y="17" width="619.7969017028809" height="471.003125"/></clipPath><g class="fl-chart-background"><rect class="fl-chart-fill" x="96.68392944335938" y="18" width="617.7969017028809" height="469.003125" fill="none"/><image class="fl-chart-image" x="96.68392944335938" y="18" width="617.7969017028809" height="469.003125" preserveAspectRatio="none"/><rect class="fl-chart-interaction" x="96.68392944335938" y="18" width="617.7969017028809" height="469.003125" style="opacity: 0;"/></g><g class="fl-data-background" clip-path="url(#fl-chart-layout-1-clip-path)"/><g class="fl-gridlines" clip-path="url(#fl-chart-layout-1-grid-clip-path)" style="pointer-events: none;"><g class="fl-gridlines-vertical"/><g class="fl-gridlines-horizontal"><line x1="96.68392944335938" x2="714.4808311462402" y1="426.63638613861383" y2="426.63638613861383" style="shape-rendering: crispedges; opacity: 1; stroke: rgb(238, 238, 238); stroke-width: 1;"/><line x1="96.68392944335938" x2="714.4808311462402" y1="310.5465037128713" y2="310.5465037128713" style="shape-rendering: crispedges; opacity: 1; stroke: rgb(238, 238, 238); stroke-width: 1;"/><line x1="96.68392944335938" x2="714.4808311462402" y1="194.4566212871287" y2="194.4566212871287" style="shape-rendering: crispedges; opacity: 1; stroke: rgb(238, 238, 238); stroke-width: 1;"/><line x1="96.68392944335938" x2="714.4808311462402" y1="78.36673886138615" y2="78.36673886138615" style="shape-rendering: crispedges; opacity: 1; stroke: rgb(238, 238, 238); stroke-width: 1;"/></g></g><g class="fl-axes" aria-hidden="true"><g class="fl-x-axes"><g class="fl-axis fl-x-axis fl-bottom-axis"><g class="fl-axis-line"/><g class="fl-axis-ticks"><g transform="translate(113.61787414550781, 487.00311279296875)" style="opacity: 1;"><line y2="7" style="stroke: rgb(238, 238, 238); stroke-width: 1;"/><text text-anchor="end" transform="translate(32.64098358154297, 20.440000534057617)" style="user-select: none; cursor: default; fill: rgb(74, 74, 74); font-size: 14px; font-weight: bold;"><tspan x="0" dy="0">enero2023</tspan></text></g><g transform="translate(172.01077270507812, 487.00311279296875)" style="opacity: 1;"><line y2="7" style="stroke: rgb(238, 238, 238); stroke-width: 1;"/><text text-anchor="end" transform="translate(37.68096923828125, 20.440000534057617)" style="user-select: none; cursor: default; fill: rgb(74, 74, 74); font-size: 14px; font-weight: bold; opacity: 0;"><tspan x="0" dy="0">febrero2023</tspan></text></g><g transform="translate(230.40367126464844, 487.00311279296875)" style="opacity: 1;"><line y2="7" style="stroke: rgb(238, 238, 238); stroke-width: 1;"/><text text-anchor="end" transform="translate(34.236968994140625, 20.440000534057617)" style="user-select: none; cursor: default; fill: rgb(74, 74, 74); font-size: 14px; font-weight: bold;"><tspan x="0" dy="0">marzo2023</tspan></text></g><g transform="translate(288.79656982421875, 487.00311279296875)" style="opacity: 1;"><line y2="7" style="stroke: rgb(238, 238, 238); stroke-width: 1;"/><text text-anchor="end" transform="translate(29.2039794921875, 20.440000534057617)" style="user-select: none; cursor: default; fill: rgb(74, 74, 74); font-size: 14px; font-weight: bold; opacity: 0;"><tspan x="0" dy="0">abril2023</tspan></text></g><g transform="translate(347.1894836425781, 487.00311279296875)" style="opacity: 1;"><line y2="7" style="stroke: rgb(238, 238, 238); stroke-width: 1;"/><text text-anchor="end" transform="translate(31.947975158691406, 20.440000534057617)" style="user-select: none; cursor: default; fill: rgb(74, 74, 74); font-size: 14px; font-weight: bold;"><tspan x="0" dy="0">mayo2023</tspan></text></g><g transform="translate(405.5823669433594, 487.00311279296875)" style="opacity: 1;"><line y2="7" style="stroke: rgb(238, 238, 238); stroke-width: 1;"/><text text-anchor="end" transform="translate(24.709991455078125, 20.440000534057617)" style="user-select: none; cursor: default; fill: rgb(74, 74, 74); font-size: 14px; font-weight: bold; opacity: 0;"><tspan x="0" dy="0">jun2023</tspan></text></g><g transform="translate(463.97528076171875, 487.00311279296875)" style="opacity: 1;"><line y2="7" style="stroke: rgb(238, 238, 238); stroke-width: 1;"/><text text-anchor="end" transform="translate(28.524986267089844, 20.440000534057617)" style="user-select: none; cursor: default; fill: rgb(74, 74, 74); font-size: 14px; font-weight: bold;"><tspan x="0" dy="0">julio2023</tspan></text></g><g transform="translate(522.3681640625, 487.00311279296875)" style="opacity: 1;"><line y2="7" style="stroke: rgb(238, 238, 238); stroke-width: 1;"/><text text-anchor="end" transform="translate(35.335975646972656, 20.440000534057617)" style="user-select: none; cursor: default; fill: rgb(74, 74, 74); font-size: 14px; font-weight: bold; opacity: 0;"><tspan x="0" dy="0">agosto2023</tspan></text></g><g transform="translate(580.7611083984375, 487.00311279296875)" style="opacity: 1;"><line y2="7" style="stroke: rgb(238, 238, 238); stroke-width: 1;"/><text text-anchor="end" transform="translate(49.93096923828125, 20.440000534057617)" style="user-select: none; cursor: default; fill: rgb(74, 74, 74); font-size: 14px; font-weight: bold;"><tspan x="0" dy="0">septiembre2023</tspan></text></g><g transform="translate(639.1539916992188, 487.00311279296875)" style="opacity: 1;"><line y2="7" style="stroke: rgb(238, 238, 238); stroke-width: 1;"/><text text-anchor="end" transform="translate(38.87797546386719, 20.440000534057617)" style="user-select: none; cursor: default; fill: rgb(74, 74, 74); font-size: 14px; font-weight: bold; opacity: 0;"><tspan x="0" dy="0">octubre2023</tspan></text></g><g transform="translate(697.546875, 487.00311279296875)" style="opacity: 1;"><line y2="7" style="stroke: rgb(238, 238, 238); stroke-width: 1;"/><text text-anchor="end" transform="translate(48.187965393066406, 20.440000534057617)" style="user-select: none; cursor: default; fill: rgb(74, 74, 74); font-size: 14px; font-weight: bold;"><tspan x="0" dy="0">noviembre2023</tspan></text></g></g><g class="fl-axis-title"/></g><g class="fl-axis fl-x-axis fl-top-axis"><g class="fl-axis-line"/><g class="fl-axis-ticks"/><g class="fl-axis-title"/></g></g><g class="fl-y-axes"><g class="fl-axis fl-y-axis fl-left-axis"><g class="fl-axis-line"/><g class="fl-axis-ticks"><g transform="translate(96.68392944335938, 426.6363830566406)" style="opacity: 1;"><line x2="-96.68392944335938" style="stroke: rgb(238, 238, 238); stroke-width: 1;"/><text text-anchor="end" transform="translate(-21,-4.2)" style="user-select: none; cursor: default; fill: rgb(74, 74, 74); font-size: 14px; font-weight: bold;"><tspan x="0" dy="0">Otras Clases</tspan></text></g><g transform="translate(96.68392944335938, 310.5465087890625)" style="opacity: 1;"><line x2="-96.68392944335938" style="stroke: rgb(238, 238, 238); stroke-width: 1;"/><text text-anchor="end" transform="translate(-33.1939697265625, -4.199999809265137)" style="user-select: none; cursor: default; fill: rgb(74, 74, 74); font-size: 14px; font-weight: bold;"><tspan x="0" dy="0">Encounter</tspan></text></g><g transform="translate(96.68392944335938, 194.4566192626953)" style="opacity: 1;"><line x2="-96.68392944335938" style="stroke: rgb(238, 238, 238); stroke-width: 1;"/><text text-anchor="end" transform="translate(-33.05400085449219, -4.199999809265137)" style="user-select: none; cursor: default; fill: rgb(74, 74, 74); font-size: 14px; font-weight: bold;"><tspan x="0" dy="0">Workbook</tspan></text></g><g transform="translate(96.68392944335938, 78.36673736572266)" style="opacity: 1;"><line x2="-96.68392944335938" style="stroke: rgb(238, 238, 238); stroke-width: 1;"/><text text-anchor="end" transform="translate(-26.319976806640625, -4.199999809265137)" style="user-select: none; cursor: default; fill: rgb(74, 74, 74); font-size: 14px; font-weight: bold;"><tspan x="0" dy="0">Multimedia</tspan></text></g></g><g class="fl-axis-title"/></g><g class="fl-axis fl-y-axis fl-right-axis"><g class="fl-axis-line"/><g class="fl-axis-ticks"/><g class="fl-axis-title"/></g></g></g><g class="fl-data-foreground" clip-path="url(#fl-chart-layout-1-clip-path)"/></g><text class="facet-title" y="0" font-size="1.25rem" font-weight="bold" dominant-baseline="middle" x="96.68392944335938" clip-path="url(#facet-clip-0-2)" fill="rgb(51, 51, 51)" opacity="0"/></g></g><g class="fits"/><g class="violins"/><g class="lines"/><g class="data-points"><path class="data-point" d="M6.005386491103056,0A6.005386491103056,6.005386491103056,0,1,1,-6.005386491103056,0A6.005386491103056,6.005386491103056,0,1,1,6.005386491103056,0" vector-effect="non-scaling-stroke" stroke="#1b9e77" fill="#1b9e77" fill-opacity="0.8" stroke-opacity="0" stroke-width="1" transform="translate(113.61787414550781, 440.6363830566406) scale(1.5633437633514404,1.5633437633514404)" tabindex="0" role="img" aria-roledescription="data point" aria-label=", Actividad: Otras Clases, HorasDedicadas: 2.30, Mes: enero2023" id="dot-0"/><path class="data-point" d="M5.600051778295026,0A5.600051778295026,5.600051778295026,0,1,1,-5.600051778295026,0A5.600051778295026,5.600051778295026,0,1,1,5.600051778295026,0" vector-effect="non-scaling-stroke" stroke="#1b9e77" fill="#1b9e77" fill-opacity="0.8" stroke-opacity="0" stroke-width="1" transform="translate(172.01077270507812, 440.6363830566406) scale(1.5633437633514404,1.5633437633514404)" tabindex="0" role="img" aria-roledescription="data point" aria-label=", Actividad: Otras Clases, HorasDedicadas: 2.00, Mes: febrero2023" id="dot-1"/><path class="data-point" d="M5.600051778295026,0A5.600051778295026,5.600051778295026,0,1,1,-5.600051778295026,0A5.600051778295026,5.600051778295026,0,1,1,5.600051778295026,0" vector-effect="non-scaling-stroke" stroke="#1b9e77" fill="#1b9e77" fill-opacity="0.8" stroke-opacity="0" stroke-width="1" transform="translate(230.40367126464844, 440.6363830566406) scale(1.5633437633514404,1.5633437633514404)" tabindex="0" role="img" aria-roledescription="data point" aria-label=", Actividad: Otras Clases, HorasDedicadas: 2.00, Mes: marzo2023" id="dot-2"/><path class="data-point" d="M8.854459317144284,0A8.854459317144284,8.854459317144284,0,1,1,-8.854459317144284,0A8.854459317144284,8.854459317144284,0,1,1,8.854459317144284,0" vector-effect="non-scaling-stroke" stroke="#1b9e77" fill="#1b9e77" fill-opacity="0.8" stroke-opacity="0" stroke-width="1" transform="translate(288.79656982421875, 440.6363830566406) scale(1.5633437633514404,1.5633437633514404)" tabindex="0" role="img" aria-roledescription="data point" aria-label=", Actividad: Otras Clases, HorasDedicadas: 5.00, Mes: abril2023" id="dot-3"/><path class="data-point" d="M6.858634694994182,0A6.858634694994182,6.858634694994182,0,1,1,-6.858634694994182,0A6.858634694994182,6.858634694994182,0,1,1,6.858634694994182,0" vector-effect="non-scaling-stroke" stroke="#1b9e77" fill="#1b9e77" fill-opacity="0.8" stroke-opacity="0" stroke-width="1" transform="translate(347.1894836425781, 440.6363830566406) scale(1.5633437633514404,1.5633437633514404)" tabindex="0" role="img" aria-roledescription="data point" aria-label=", Actividad: Otras Clases, HorasDedicadas: 3.00, Mes: mayo2023" id="dot-4"/><path class="data-point" d="M0,0" vector-effect="non-scaling-stroke" stroke="#1b9e77" fill="#1b9e77" fill-opacity="0.8" stroke-opacity="0" stroke-width="1" transform="translate(405.5823669433594, 440.6363830566406) scale(1.5633437633514404,1.5633437633514404)" tabindex="0" role="img" aria-roledescription="data point" aria-label=", Actividad: Otras Clases, HorasDedicadas: 0.00, Mes: jun2023" id="dot-5"/><path class="data-point" d="M0,0" vector-effect="non-scaling-stroke" stroke="#1b9e77" fill="#1b9e77" fill-opacity="0.8" stroke-opacity="0" stroke-width="1" transform="translate(463.97528076171875, 440.6363830566406) scale(1.5633437633514404,1.5633437633514404)" tabindex="0" role="img" aria-roledescription="data point" aria-label=", Actividad: Otras Clases, HorasDedicadas: 0.00, Mes: julio2023" id="dot-6"/><path class="data-point" d="M7.919669174856395,0A7.919669174856395,7.919669174856395,0,1,1,-7.919669174856395,0A7.919669174856395,7.919669174856395,0,1,1,7.919669174856395,0" vector-effect="non-scaling-stroke" stroke="#1b9e77" fill="#1b9e77" fill-opacity="0.8" stroke-opacity="0" stroke-width="1" transform="translate(522.3681640625, 440.6363830566406) scale(1.5633437633514404,1.5633437633514404)" tabindex="0" role="img" aria-roledescription="data point" aria-label=", Actividad: Otras Clases, HorasDedicadas: 4.00, Mes: agosto2023" id="dot-7"/><path class="data-point" d="M5.600051778295026,0A5.600051778295026,5.600051778295026,0,1,1,-5.600051778295026,0A5.600051778295026,5.600051778295026,0,1,1,5.600051778295026,0" vector-effect="non-scaling-stroke" stroke="#1b9e77" fill="#1b9e77" fill-opacity="0.8" stroke-opacity="0" stroke-width="1" transform="translate(580.7611083984375, 440.6363830566406) scale(1.5633437633514404,1.5633437633514404)" tabindex="0" role="img" aria-roledescription="data point" aria-label=", Actividad: Otras Clases, HorasDedicadas: 2.00, Mes: septiembre2023" id="dot-8"/><path class="data-point" d="M0,0" vector-effect="non-scaling-stroke" stroke="#1b9e77" fill="#1b9e77" fill-opacity="0.8" stroke-opacity="0" stroke-width="1" transform="translate(639.1539916992188, 440.6363830566406) scale(1.5633437633514404,1.5633437633514404)" tabindex="0" role="img" aria-roledescription="data point" aria-label=", Actividad: Otras Clases, HorasDedicadas: 0.00, Mes: octubre2023" id="dot-9"/><path class="data-point" d="M2.1688907275235865,0A2.1688907275235865,2.1688907275235865,0,1,1,-2.1688907275235865,0A2.1688907275235865,2.1688907275235865,0,1,1,2.1688907275235865,0" vector-effect="non-scaling-stroke" stroke="#1b9e77" fill="#1b9e77" fill-opacity="0.8" stroke-opacity="0" stroke-width="1" transform="translate(697.546875, 440.6363830566406) scale(1.5633437633514404,1.5633437633514404)" tabindex="0" role="img" aria-roledescription="data point" aria-label=", Actividad: Otras Clases, HorasDedicadas: 0.30, Mes: noviembre2023" id="dot-10"/><path class="data-point" d="M3.9598345874281975,0A3.9598345874281975,3.9598345874281975,0,1,1,-3.9598345874281975,0A3.9598345874281975,3.9598345874281975,0,1,1,3.9598345874281975,0" vector-effect="non-scaling-stroke" stroke="#d95f02" fill="#d95f02" fill-opacity="0.8" stroke-opacity="0" stroke-width="1" transform="translate(113.61787414550781, 324.5465087890625) scale(1.5633437633514404,1.5633437633514404)" tabindex="0" role="img" aria-roledescription="data point" aria-label=", Actividad: Encounter, HorasDedicadas: 1.00, Mes: enero2023" id="dot-11"/><path class="data-point" d="M5.600051778295026,0A5.600051778295026,5.600051778295026,0,1,1,-5.600051778295026,0A5.600051778295026,5.600051778295026,0,1,1,5.600051778295026,0" vector-effect="non-scaling-stroke" stroke="#d95f02" fill="#d95f02" fill-opacity="0.8" stroke-opacity="0" stroke-width="1" transform="translate(172.01077270507812, 324.5465087890625) scale(1.5633437633514404,1.5633437633514404)" tabindex="0" role="img" aria-roledescription="data point" aria-label=", Actividad: Encounter, HorasDedicadas: 2.00, Mes: febrero2023" id="dot-12"/><path class="data-point" d="M6.858634694994182,0A6.858634694994182,6.858634694994182,0,1,1,-6.858634694994182,0A6.858634694994182,6.858634694994182,0,1,1,6.858634694994182,0" vector-effect="non-scaling-stroke" stroke="#d95f02" fill="#d95f02" fill-opacity="0.8" stroke-opacity="0" stroke-width="1" transform="translate(230.40367126464844, 324.5465087890625) scale(1.5633437633514404,1.5633437633514404)" tabindex="0" role="img" aria-roledescription="data point" aria-label=", Actividad: Encounter, HorasDedicadas: 3.00, Mes: marzo2023" id="dot-13"/><path class="data-point" d="M5.600051778295026,0A5.600051778295026,5.600051778295026,0,1,1,-5.600051778295026,0A5.600051778295026,5.600051778295026,0,1,1,5.600051778295026,0" vector-effect="non-scaling-stroke" stroke="#d95f02" fill="#d95f02" fill-opacity="0.8" stroke-opacity="0" stroke-width="1" transform="translate(288.79656982421875, 324.5465087890625) scale(1.5633437633514404,1.5633437633514404)" tabindex="0" role="img" aria-roledescription="data point" aria-label=", Actividad: Encounter, HorasDedicadas: 2.00, Mes: abril2023" id="dot-14"/><path class="data-point" d="M5.600051778295026,0A5.600051778295026,5.600051778295026,0,1,1,-5.600051778295026,0A5.600051778295026,5.600051778295026,0,1,1,5.600051778295026,0" vector-effect="non-scaling-stroke" stroke="#d95f02" fill="#d95f02" fill-opacity="0.8" stroke-opacity="0" stroke-width="1" transform="translate(347.1894836425781, 324.5465087890625) scale(1.5633437633514404,1.5633437633514404)" tabindex="0" role="img" aria-roledescription="data point" aria-label=", Actividad: Encounter, HorasDedicadas: 2.00, Mes: mayo2023" id="dot-15"/><path class="data-point" d="M5.600051778295026,0A5.600051778295026,5.600051778295026,0,1,1,-5.600051778295026,0A5.600051778295026,5.600051778295026,0,1,1,5.600051778295026,0" vector-effect="non-scaling-stroke" stroke="#d95f02" fill="#d95f02" fill-opacity="0.8" stroke-opacity="0" stroke-width="1" transform="translate(405.5823669433594, 324.5465087890625) scale(1.5633437633514404,1.5633437633514404)" tabindex="0" role="img" aria-roledescription="data point" aria-label=", Actividad: Encounter, HorasDedicadas: 2.00, Mes: jun2023" id="dot-16"/><path class="data-point" d="M3.9598345874281975,0A3.9598345874281975,3.9598345874281975,0,1,1,-3.9598345874281975,0A3.9598345874281975,3.9598345874281975,0,1,1,3.9598345874281975,0" vector-effect="non-scaling-stroke" stroke="#d95f02" fill="#d95f02" fill-opacity="0.8" stroke-opacity="0" stroke-width="1" transform="translate(463.97528076171875, 324.5465087890625) scale(1.5633437633514404,1.5633437633514404)" tabindex="0" role="img" aria-roledescription="data point" aria-label=", Actividad: Encounter, HorasDedicadas: 1.00, Mes: julio2023" id="dot-17"/><path class="data-point" d="M3.9598345874281975,0A3.9598345874281975,3.9598345874281975,0,1,1,-3.9598345874281975,0A3.9598345874281975,3.9598345874281975,0,1,1,3.9598345874281975,0" vector-effect="non-scaling-stroke" stroke="#d95f02" fill="#d95f02" fill-opacity="0.8" stroke-opacity="0" stroke-width="1" transform="translate(522.3681640625, 324.5465087890625) scale(1.5633437633514404,1.5633437633514404)" tabindex="0" role="img" aria-roledescription="data point" aria-label=", Actividad: Encounter, HorasDedicadas: 1.00, Mes: agosto2023" id="dot-18"/><path class="data-point" d="M3.9598345874281975,0A3.9598345874281975,3.9598345874281975,0,1,1,-3.9598345874281975,0A3.9598345874281975,3.9598345874281975,0,1,1,3.9598345874281975,0" vector-effect="non-scaling-stroke" stroke="#d95f02" fill="#d95f02" fill-opacity="0.8" stroke-opacity="0" stroke-width="1" transform="translate(580.7611083984375, 324.5465087890625) scale(1.5633437633514404,1.5633437633514404)" tabindex="0" role="img" aria-roledescription="data point" aria-label=", Actividad: Encounter, HorasDedicadas: 1.00, Mes: septiembre2023" id="dot-19"/><path class="data-point" d="M3.9598345874281975,0A3.9598345874281975,3.9598345874281975,0,1,1,-3.9598345874281975,0A3.9598345874281975,3.9598345874281975,0,1,1,3.9598345874281975,0" vector-effect="non-scaling-stroke" stroke="#d95f02" fill="#d95f02" fill-opacity="0.8" stroke-opacity="0" stroke-width="1" transform="translate(639.1539916992188, 324.5465087890625) scale(1.5633437633514404,1.5633437633514404)" tabindex="0" role="img" aria-roledescription="data point" aria-label=", Actividad: Encounter, HorasDedicadas: 1.00, Mes: octubre2023" id="dot-20"/><path class="data-point" d="M3.9598345874281975,0A3.9598345874281975,3.9598345874281975,0,1,1,-3.9598345874281975,0A3.9598345874281975,3.9598345874281975,0,1,1,3.9598345874281975,0" vector-effect="non-scaling-stroke" stroke="#d95f02" fill="#d95f02" fill-opacity="0.8" stroke-opacity="0" stroke-width="1" transform="translate(697.546875, 324.5465087890625) scale(1.5633437633514404,1.5633437633514404)" tabindex="0" role="img" aria-roledescription="data point" aria-label=", Actividad: Encounter, HorasDedicadas: 1.00, Mes: noviembre2023" id="dot-21"/><path class="data-point" d="M5.833200597677919,0A5.833200597677919,5.833200597677919,0,1,1,-5.833200597677919,0A5.833200597677919,5.833200597677919,0,1,1,5.833200597677919,0" vector-effect="non-scaling-stroke" stroke="#7570b3" fill="#7570b3" fill-opacity="0.8" stroke-opacity="0" stroke-width="1" transform="translate(113.61787414550781, 208.4566192626953) scale(1.5633437633514404,1.5633437633514404)" tabindex="0" role="img" aria-roledescription="data point" aria-label=", Actividad: Workbook, HorasDedicadas: 2.17, Mes: enero2023" id="dot-22"/><path class="data-point" d="M5.913294057489242,0A5.913294057489242,5.913294057489242,0,1,1,-5.913294057489242,0A5.913294057489242,5.913294057489242,0,1,1,5.913294057489242,0" vector-effect="non-scaling-stroke" stroke="#7570b3" fill="#7570b3" fill-opacity="0.8" stroke-opacity="0" stroke-width="1" transform="translate(172.01077270507812, 208.4566192626953) scale(1.5633437633514404,1.5633437633514404)" tabindex="0" role="img" aria-roledescription="data point" aria-label=", Actividad: Workbook, HorasDedicadas: 2.23, Mes: febrero2023" id="dot-23"/><path class="data-point" d="M8.027826090215692,0A8.027826090215692,8.027826090215692,0,1,1,-8.027826090215692,0A8.027826090215692,8.027826090215692,0,1,1,8.027826090215692,0" vector-effect="non-scaling-stroke" stroke="#7570b3" fill="#7570b3" fill-opacity="0.8" stroke-opacity="0" stroke-width="1" transform="translate(230.40367126464844, 208.4566192626953) scale(1.5633437633514404,1.5633437633514404)" tabindex="0" role="img" aria-roledescription="data point" aria-label=", Actividad: Workbook, HorasDedicadas: 4.11, Mes: marzo2023" id="dot-24"/><path class="data-point" d="M6.248513583235911,0A6.248513583235911,6.248513583235911,0,1,1,-6.248513583235911,0A6.248513583235911,6.248513583235911,0,1,1,6.248513583235911,0" vector-effect="non-scaling-stroke" stroke="#7570b3" fill="#7570b3" fill-opacity="0.8" stroke-opacity="0" stroke-width="1" transform="translate(288.79656982421875, 208.4566192626953) scale(1.5633437633514404,1.5633437633514404)" tabindex="0" role="img" aria-roledescription="data point" aria-label=", Actividad: Workbook, HorasDedicadas: 2.49, Mes: abril2023" id="dot-25"/><path class="data-point" d="M7.408172167226829,0A7.408172167226829,7.408172167226829,0,1,1,-7.408172167226829,0A7.408172167226829,7.408172167226829,0,1,1,7.408172167226829,0" vector-effect="non-scaling-stroke" stroke="#7570b3" fill="#7570b3" fill-opacity="0.8" stroke-opacity="0" stroke-width="1" transform="translate(347.1894836425781, 208.4566192626953) scale(1.5633437633514404,1.5633437633514404)" tabindex="0" role="img" aria-roledescription="data point" aria-label=", Actividad: Workbook, HorasDedicadas: 3.50, Mes: mayo2023" id="dot-26"/><path class="data-point" d="M4.784686336772481,0A4.784686336772481,4.784686336772481,0,1,1,-4.784686336772481,0A4.784686336772481,4.784686336772481,0,1,1,4.784686336772481,0" vector-effect="non-scaling-stroke" stroke="#7570b3" fill="#7570b3" fill-opacity="0.8" stroke-opacity="0" stroke-width="1" transform="translate(405.5823669433594, 208.4566192626953) scale(1.5633437633514404,1.5633437633514404)" tabindex="0" role="img" aria-roledescription="data point" aria-label=", Actividad: Workbook, HorasDedicadas: 1.46, Mes: jun2023" id="dot-27"/><path class="data-point" d="M4.617920998167681,0A4.617920998167681,4.617920998167681,0,1,1,-4.617920998167681,0A4.617920998167681,4.617920998167681,0,1,1,4.617920998167681,0" vector-effect="non-scaling-stroke" stroke="#7570b3" fill="#7570b3" fill-opacity="0.8" stroke-opacity="0" stroke-width="1" transform="translate(463.97528076171875, 208.4566192626953) scale(1.5633437633514404,1.5633437633514404)" tabindex="0" role="img" aria-roledescription="data point" aria-label=", Actividad: Workbook, HorasDedicadas: 1.36, Mes: julio2023" id="dot-28"/><path class="data-point" d="M4.833594112054822,0A4.833594112054822,4.833594112054822,0,1,1,-4.833594112054822,0A4.833594112054822,4.833594112054822,0,1,1,4.833594112054822,0" vector-effect="non-scaling-stroke" stroke="#7570b3" fill="#7570b3" fill-opacity="0.8" stroke-opacity="0" stroke-width="1" transform="translate(522.3681640625, 208.4566192626953) scale(1.5633437633514404,1.5633437633514404)" tabindex="0" role="img" aria-roledescription="data point" aria-label=", Actividad: Workbook, HorasDedicadas: 1.49, Mes: agosto2023" id="dot-29"/><path class="data-point" d="M4.301481390469488,0A4.301481390469488,4.301481390469488,0,1,1,-4.301481390469488,0A4.301481390469488,4.301481390469488,0,1,1,4.301481390469488,0" vector-effect="non-scaling-stroke" stroke="#7570b3" fill="#7570b3" fill-opacity="0.8" stroke-opacity="0" stroke-width="1" transform="translate(580.7611083984375, 208.4566192626953) scale(1.5633437633514404,1.5633437633514404)" tabindex="0" role="img" aria-roledescription="data point" aria-label=", Actividad: Workbook, HorasDedicadas: 1.18, Mes: septiembre2023" id="dot-30"/><path class="data-point" d="M4.898044879182177,0A4.898044879182177,4.898044879182177,0,1,1,-4.898044879182177,0A4.898044879182177,4.898044879182177,0,1,1,4.898044879182177,0" vector-effect="non-scaling-stroke" stroke="#7570b3" fill="#7570b3" fill-opacity="0.8" stroke-opacity="0" stroke-width="1" transform="translate(639.1539916992188, 208.4566192626953) scale(1.5633437633514404,1.5633437633514404)" tabindex="0" role="img" aria-roledescription="data point" aria-label=", Actividad: Workbook, HorasDedicadas: 1.53, Mes: octubre2023" id="dot-31"/><path class="data-point" d="M4.651752373516226,0A4.651752373516226,4.651752373516226,0,1,1,-4.651752373516226,0A4.651752373516226,4.651752373516226,0,1,1,4.651752373516226,0" vector-effect="non-scaling-stroke" stroke="#7570b3" fill="#7570b3" fill-opacity="0.8" stroke-opacity="0" stroke-width="1" transform="translate(697.546875, 208.4566192626953) scale(1.5633437633514404,1.5633437633514404)" tabindex="0" role="img" aria-roledescription="data point" aria-label=", Actividad: Workbook, HorasDedicadas: 1.38, Mes: noviembre2023" id="dot-32"/><path class="data-point" d="M9.931214620936139,0A9.931214620936139,9.931214620936139,0,1,1,-9.931214620936139,0A9.931214620936139,9.931214620936139,0,1,1,9.931214620936139,0" vector-effect="non-scaling-stroke" stroke="#e7298a" fill="#e7298a" fill-opacity="0.8" stroke-opacity="0" stroke-width="1" transform="translate(113.61787414550781, 92.36673736572266) scale(1.5633437633514404,1.5633437633514404)" tabindex="0" role="img" aria-roledescription="data point" aria-label=", Actividad: Multimedia, HorasDedicadas: 6.29, Mes: enero2023" id="dot-33"/><path class="data-point" d="M9.931214620936139,0A9.931214620936139,9.931214620936139,0,1,1,-9.931214620936139,0A9.931214620936139,9.931214620936139,0,1,1,9.931214620936139,0" vector-effect="non-scaling-stroke" stroke="#e7298a" fill="#e7298a" fill-opacity="0.8" stroke-opacity="0" stroke-width="1" transform="translate(172.01077270507812, 92.36673736572266) scale(1.5633437633514404,1.5633437633514404)" tabindex="0" role="img" aria-roledescription="data point" aria-label=", Actividad: Multimedia, HorasDedicadas: 6.29, Mes: febrero2023" id="dot-34"/><path class="data-point" d="M14.927053303604616,0A14.927053303604616,14.927053303604616,0,1,1,-14.927053303604616,0A14.927053303604616,14.927053303604616,0,1,1,14.927053303604616,0" vector-effect="non-scaling-stroke" stroke="#e7298a" fill="#e7298a" fill-opacity="0.8" stroke-opacity="0" stroke-width="1" transform="translate(230.40367126464844, 92.36673736572266) scale(1.5633437633514404,1.5633437633514404)" tabindex="0" role="img" aria-roledescription="data point" aria-label=", Actividad: Multimedia, HorasDedicadas: 14.21, Mes: marzo2023" id="dot-35"/><path class="data-point" d="M10.103399805919299,0A10.103399805919299,10.103399805919299,0,1,1,-10.103399805919299,0A10.103399805919299,10.103399805919299,0,1,1,10.103399805919299,0" vector-effect="non-scaling-stroke" stroke="#e7298a" fill="#e7298a" fill-opacity="0.8" stroke-opacity="0" stroke-width="1" transform="translate(288.79656982421875, 92.36673736572266) scale(1.5633437633514404,1.5633437633514404)" tabindex="0" role="img" aria-roledescription="data point" aria-label=", Actividad: Multimedia, HorasDedicadas: 6.51, Mes: abril2023" id="dot-36"/><path class="data-point" d="M13.381663250165579,0A13.381663250165579,13.381663250165579,0,1,1,-13.381663250165579,0A13.381663250165579,13.381663250165579,0,1,1,13.381663250165579,0" vector-effect="non-scaling-stroke" stroke="#e7298a" fill="#e7298a" fill-opacity="0.8" stroke-opacity="0" stroke-width="1" transform="translate(347.1894836425781, 92.36673736572266) scale(1.5633437633514404,1.5633437633514404)" tabindex="0" role="img" aria-roledescription="data point" aria-label=", Actividad: Multimedia, HorasDedicadas: 11.42, Mes: mayo2023" id="dot-37"/><path class="data-point" d="M7.471400956772553,0A7.471400956772553,7.471400956772553,0,1,1,-7.471400956772553,0A7.471400956772553,7.471400956772553,0,1,1,7.471400956772553,0" vector-effect="non-scaling-stroke" stroke="#e7298a" fill="#e7298a" fill-opacity="0.8" stroke-opacity="0" stroke-width="1" transform="translate(405.5823669433594, 92.36673736572266) scale(1.5633437633514404,1.5633437633514404)" tabindex="0" role="img" aria-roledescription="data point" aria-label=", Actividad: Multimedia, HorasDedicadas: 3.56, Mes: jun2023" id="dot-38"/><path class="data-point" d="M8.907427641948644,0A8.907427641948644,8.907427641948644,0,1,1,-8.907427641948644,0A8.907427641948644,8.907427641948644,0,1,1,8.907427641948644,0" vector-effect="non-scaling-stroke" stroke="#e7298a" fill="#e7298a" fill-opacity="0.8" stroke-opacity="0" stroke-width="1" transform="translate(463.97528076171875, 92.36673736572266) scale(1.5633437633514404,1.5633437633514404)" tabindex="0" role="img" aria-roledescription="data point" aria-label=", Actividad: Multimedia, HorasDedicadas: 5.06, Mes: julio2023" id="dot-39"/><path class="data-point" d="M8.933794036989243,0A8.933794036989243,8.933794036989243,0,1,1,-8.933794036989243,0A8.933794036989243,8.933794036989243,0,1,1,8.933794036989243,0" vector-effect="non-scaling-stroke" stroke="#e7298a" fill="#e7298a" fill-opacity="0.8" stroke-opacity="0" stroke-width="1" transform="translate(522.3681640625, 92.36673736572266) scale(1.5633437633514404,1.5633437633514404)" tabindex="0" role="img" aria-roledescription="data point" aria-label=", Actividad: Multimedia, HorasDedicadas: 5.09, Mes: agosto2023" id="dot-40"/><path class="data-point" d="M8.09590094010131,0A8.09590094010131,8.09590094010131,0,1,1,-8.09590094010131,0A8.09590094010131,8.09590094010131,0,1,1,8.09590094010131,0" vector-effect="non-scaling-stroke" stroke="#e7298a" fill="#e7298a" fill-opacity="0.8" stroke-opacity="0" stroke-width="1" transform="translate(580.7611083984375, 92.36673736572266) scale(1.5633437633514404,1.5633437633514404)" tabindex="0" role="img" aria-roledescription="data point" aria-label=", Actividad: Multimedia, HorasDedicadas: 4.18, Mes: septiembre2023" id="dot-41"/><path class="data-point" d="M9.286635277583564,0A9.286635277583564,9.286635277583564,0,1,1,-9.286635277583564,0A9.286635277583564,9.286635277583564,0,1,1,9.286635277583564,0" vector-effect="non-scaling-stroke" stroke="#e7298a" fill="#e7298a" fill-opacity="0.8" stroke-opacity="0" stroke-width="1" transform="translate(639.1539916992188, 92.36673736572266) scale(1.5633437633514404,1.5633437633514404)" tabindex="0" role="img" aria-roledescription="data point" aria-label=", Actividad: Multimedia, HorasDedicadas: 5.50, Mes: octubre2023" id="dot-42"/><path class="data-point" d="M7.939443660507103,0A7.939443660507103,7.939443660507103,0,1,1,-7.939443660507103,0A7.939443660507103,7.939443660507103,0,1,1,7.939443660507103,0" vector-effect="non-scaling-stroke" stroke="#e7298a" fill="#e7298a" fill-opacity="0.8" stroke-opacity="0" stroke-width="1" transform="translate(697.546875, 92.36673736572266) scale(1.5633437633514404,1.5633437633514404)" tabindex="0" role="img" aria-roledescription="data point" aria-label=", Actividad: Multimedia, HorasDedicadas: 4.02, Mes: noviembre2023" id="dot-43"/></g><g id="axes-highlights"><g class="axis-highlights-facet" opacity="1"><defs><pattern class="fl-pattern-auto" width="4" height="4" patternUnits="userSpaceOnUse" id="fl-pattern-diagonal-x"><path stroke-width="1" shape-rendering="auto" stroke-linecap="square" d="M 0 4 l 4 -4 M -1 1 l 2 -2 M 3 5 l 2 -2" style="stroke: currentcolor;"/></pattern><pattern class="fl-pattern-auto" width="4" height="4" patternUnits="userSpaceOnUse" id="fl-pattern-dots-x"><path stroke-width="1" shape-rendering="auto" stroke-linecap="square" d="M 1 2 A 1.2 1.2 0 1 1 1 2.1 Z" style="fill: currentcolor;"/></pattern><pattern class="fl-pattern-auto" width="4" height="4" patternUnits="userSpaceOnUse" id="fl-pattern-grid-x"><path stroke-width="1" shape-rendering="auto" stroke-linecap="square" d="M 2 0 l 0 4 M 0 2 l 4 0" style="stroke: currentcolor;"/></pattern><pattern class="fl-pattern-auto" width="4" height="4" patternUnits="userSpaceOnUse" id="fl-pattern-diagonal-y"><path stroke-width="1" shape-rendering="auto" stroke-linecap="square" d="M 0 4 l 4 -4 M -1 1 l 2 -2 M 3 5 l 2 -2" style="stroke: currentcolor;"/></pattern><pattern class="fl-pattern-auto" width="4" height="4" patternUnits="userSpaceOnUse" id="fl-pattern-grid-y"><path stroke-width="1" shape-rendering="auto" stroke-linecap="square" d="M 2 0 l 0 4 M 0 2 l 4 0" style="stroke: currentcolor;"/></pattern><pattern class="fl-pattern-auto" width="4" height="4" patternUnits="userSpaceOnUse" id="fl-pattern-dots-y"><path stroke-width="1" shape-rendering="auto" stroke-linecap="square" d="M 1 2 A 1.2 1.2 0 1 1 1 2.1 Z" style="fill: currentcolor;"/></pattern></defs><g class="axis-highlights" transform="translate(0, 14)" style="opacity: 1;"/></g></g></svg><svg xmlns="http://www.w3.org/2000/svg" id="overlay" fill="currentColor" aria-hidden="true" style="position: absolute;" width="775" height="530.203125" x="10.5" y="34.296875"><g class="data-labels"><text dominant-baseline="middle" class="data-label" transform="translate(1000000000,1000000000)" pointer-events="none" text-anchor="start" paint-order="stroke" stroke="#ffffff" stroke-width="NaN" fill="rgb(27, 158, 119)"><tspan x="0" y="NaN"/></text><text dominant-baseline="middle" class="data-label" transform="translate(1000000000,1000000000)" pointer-events="none" text-anchor="start" paint-order="stroke" stroke="#ffffff" stroke-width="NaN" fill="rgb(27, 158, 119)"><tspan x="0" y="NaN"/></text><text dominant-baseline="middle" class="data-label" transform="translate(1000000000,1000000000)" pointer-events="none" text-anchor="start" paint-order="stroke" stroke="#ffffff" stroke-width="NaN" fill="rgb(27, 158, 119)"><tspan x="0" y="NaN"/></text><text dominant-baseline="middle" class="data-label" transform="translate(1000000000,1000000000)" pointer-events="none" text-anchor="start" paint-order="stroke" stroke="#ffffff" stroke-width="NaN" fill="rgb(27, 158, 119)"><tspan x="0" y="NaN"/></text><text dominant-baseline="middle" class="data-label" transform="translate(1000000000,1000000000)" pointer-events="none" text-anchor="start" paint-order="stroke" stroke="#ffffff" stroke-width="NaN" fill="rgb(27, 158, 119)"><tspan x="0" y="NaN"/></text><text dominant-baseline="middle" class="data-label" transform="translate(1000000000,1000000000)" pointer-events="none" text-anchor="end" paint-order="stroke" stroke="#ffffff" stroke-width="NaN" fill="rgb(27, 158, 119)"><tspan x="0" y="NaN"/></text><text dominant-baseline="middle" class="data-label" transform="translate(1000000000,1000000000)" pointer-events="none" text-anchor="end" paint-order="stroke" stroke="#ffffff" stroke-width="NaN" fill="rgb(27, 158, 119)"><tspan x="0" y="NaN"/></text><text dominant-baseline="middle" class="data-label" transform="translate(1000000000,1000000000)" pointer-events="none" text-anchor="end" paint-order="stroke" stroke="#ffffff" stroke-width="NaN" fill="rgb(27, 158, 119)"><tspan x="0" y="NaN"/></text><text dominant-baseline="middle" class="data-label" transform="translate(1000000000,1000000000)" pointer-events="none" text-anchor="end" paint-order="stroke" stroke="#ffffff" stroke-width="NaN" fill="rgb(27, 158, 119)"><tspan x="0" y="NaN"/></text><text dominant-baseline="middle" class="data-label" transform="translate(1000000000,1000000000)" pointer-events="none" text-anchor="end" paint-order="stroke" stroke="#ffffff" stroke-width="NaN" fill="rgb(27, 158, 119)"><tspan x="0" y="NaN"/></text><text dominant-baseline="middle" class="data-label" transform="translate(1000000000,1000000000)" pointer-events="none" text-anchor="end" paint-order="stroke" stroke="#ffffff" stroke-width="NaN" fill="rgb(27, 158, 119)"><tspan x="0" y="NaN"/></text><text dominant-baseline="middle" class="data-label" transform="translate(1000000000,1000000000)" pointer-events="none" text-anchor="start" paint-order="stroke" stroke="#ffffff" stroke-width="NaN" fill="rgb(217, 95, 2)"><tspan x="0" y="NaN"/></text><text dominant-baseline="middle" class="data-label" transform="translate(1000000000,1000000000)" pointer-events="none" text-anchor="start" paint-order="stroke" stroke="#ffffff" stroke-width="NaN" fill="rgb(217, 95, 2)"><tspan x="0" y="NaN"/></text><text dominant-baseline="middle" class="data-label" transform="translate(1000000000,1000000000)" pointer-events="none" text-anchor="start" paint-order="stroke" stroke="#ffffff" stroke-width="NaN" fill="rgb(217, 95, 2)"><tspan x="0" y="NaN"/></text><text dominant-baseline="middle" class="data-label" transform="translate(1000000000,1000000000)" pointer-events="none" text-anchor="start" paint-order="stroke" stroke="#ffffff" stroke-width="NaN" fill="rgb(217, 95, 2)"><tspan x="0" y="NaN"/></text><text dominant-baseline="middle" class="data-label" transform="translate(1000000000,1000000000)" pointer-events="none" text-anchor="start" paint-order="stroke" stroke="#ffffff" stroke-width="NaN" fill="rgb(217, 95, 2)"><tspan x="0" y="NaN"/></text><text dominant-baseline="middle" class="data-label" transform="translate(1000000000,1000000000)" pointer-events="none" text-anchor="end" paint-order="stroke" stroke="#ffffff" stroke-width="NaN" fill="rgb(217, 95, 2)"><tspan x="0" y="NaN"/></text><text dominant-baseline="middle" class="data-label" transform="translate(1000000000,1000000000)" pointer-events="none" text-anchor="end" paint-order="stroke" stroke="#ffffff" stroke-width="NaN" fill="rgb(217, 95, 2)"><tspan x="0" y="NaN"/></text><text dominant-baseline="middle" class="data-label" transform="translate(1000000000,1000000000)" pointer-events="none" text-anchor="end" paint-order="stroke" stroke="#ffffff" stroke-width="NaN" fill="rgb(217, 95, 2)"><tspan x="0" y="NaN"/></text><text dominant-baseline="middle" class="data-label" transform="translate(1000000000,1000000000)" pointer-events="none" text-anchor="end" paint-order="stroke" stroke="#ffffff" stroke-width="NaN" fill="rgb(217, 95, 2)"><tspan x="0" y="NaN"/></text><text dominant-baseline="middle" class="data-label" transform="translate(1000000000,1000000000)" pointer-events="none" text-anchor="end" paint-order="stroke" stroke="#ffffff" stroke-width="NaN" fill="rgb(217, 95, 2)"><tspan x="0" y="NaN"/></text><text dominant-baseline="middle" class="data-label" transform="translate(1000000000,1000000000)" pointer-events="none" text-anchor="end" paint-order="stroke" stroke="#ffffff" stroke-width="NaN" fill="rgb(217, 95, 2)"><tspan x="0" y="NaN"/></text><text dominant-baseline="middle" class="data-label" transform="translate(1000000000,1000000000)" pointer-events="none" text-anchor="start" paint-order="stroke" stroke="#ffffff" stroke-width="NaN" fill="rgb(117, 112, 179)"><tspan x="0" y="NaN"/></text><text dominant-baseline="middle" class="data-label" transform="translate(1000000000,1000000000)" pointer-events="none" text-anchor="start" paint-order="stroke" stroke="#ffffff" stroke-width="NaN" fill="rgb(117, 112, 179)"><tspan x="0" y="NaN"/></text><text dominant-baseline="middle" class="data-label" transform="translate(1000000000,1000000000)" pointer-events="none" text-anchor="start" paint-order="stroke" stroke="#ffffff" stroke-width="NaN" fill="rgb(117, 112, 179)"><tspan x="0" y="NaN"/></text><text dominant-baseline="middle" class="data-label" transform="translate(1000000000,1000000000)" pointer-events="none" text-anchor="start" paint-order="stroke" stroke="#ffffff" stroke-width="NaN" fill="rgb(117, 112, 179)"><tspan x="0" y="NaN"/></text><text dominant-baseline="middle" class="data-label" transform="translate(1000000000,1000000000)" pointer-events="none" text-anchor="start" paint-order="stroke" stroke="#ffffff" stroke-width="NaN" fill="rgb(117, 112, 179)"><tspan x="0" y="NaN"/></text><text dominant-baseline="middle" class="data-label" transform="translate(1000000000,1000000000)" pointer-events="none" text-anchor="end" paint-order="stroke" stroke="#ffffff" stroke-width="NaN" fill="rgb(117, 112, 179)"><tspan x="0" y="NaN"/></text><text dominant-baseline="middle" class="data-label" transform="translate(1000000000,1000000000)" pointer-events="none" text-anchor="end" paint-order="stroke" stroke="#ffffff" stroke-width="NaN" fill="rgb(117, 112, 179)"><tspan x="0" y="NaN"/></text><text dominant-baseline="middle" class="data-label" transform="translate(1000000000,1000000000)" pointer-events="none" text-anchor="end" paint-order="stroke" stroke="#ffffff" stroke-width="NaN" fill="rgb(117, 112, 179)"><tspan x="0" y="NaN"/></text><text dominant-baseline="middle" class="data-label" transform="translate(1000000000,1000000000)" pointer-events="none" text-anchor="end" paint-order="stroke" stroke="#ffffff" stroke-width="NaN" fill="rgb(117, 112, 179)"><tspan x="0" y="NaN"/></text><text dominant-baseline="middle" class="data-label" transform="translate(1000000000,1000000000)" pointer-events="none" text-anchor="end" paint-order="stroke" stroke="#ffffff" stroke-width="NaN" fill="rgb(117, 112, 179)"><tspan x="0" y="NaN"/></text><text dominant-baseline="middle" class="data-label" transform="translate(1000000000,1000000000)" pointer-events="none" text-anchor="end" paint-order="stroke" stroke="#ffffff" stroke-width="NaN" fill="rgb(117, 112, 179)"><tspan x="0" y="NaN"/></text><text dominant-baseline="middle" class="data-label" transform="translate(1000000000,1000000000)" pointer-events="none" text-anchor="start" paint-order="stroke" stroke="#ffffff" stroke-width="NaN" fill="rgb(231, 41, 138)"><tspan x="0" y="NaN"/></text><text dominant-baseline="middle" class="data-label" transform="translate(1000000000,1000000000)" pointer-events="none" text-anchor="start" paint-order="stroke" stroke="#ffffff" stroke-width="NaN" fill="rgb(231, 41, 138)"><tspan x="0" y="NaN"/></text><text dominant-baseline="middle" class="data-label" transform="translate(1000000000,1000000000)" pointer-events="none" text-anchor="start" paint-order="stroke" stroke="#ffffff" stroke-width="NaN" fill="rgb(231, 41, 138)"><tspan x="0" y="NaN"/></text><text dominant-baseline="middle" class="data-label" transform="translate(1000000000,1000000000)" pointer-events="none" text-anchor="start" paint-order="stroke" stroke="#ffffff" stroke-width="NaN" fill="rgb(231, 41, 138)"><tspan x="0" y="NaN"/></text><text dominant-baseline="middle" class="data-label" transform="translate(1000000000,1000000000)" pointer-events="none" text-anchor="start" paint-order="stroke" stroke="#ffffff" stroke-width="NaN" fill="rgb(231, 41, 138)"><tspan x="0" y="NaN"/></text><text dominant-baseline="middle" class="data-label" transform="translate(1000000000,1000000000)" pointer-events="none" text-anchor="end" paint-order="stroke" stroke="#ffffff" stroke-width="NaN" fill="rgb(231, 41, 138)"><tspan x="0" y="NaN"/></text><text dominant-baseline="middle" class="data-label" transform="translate(1000000000,1000000000)" pointer-events="none" text-anchor="end" paint-order="stroke" stroke="#ffffff" stroke-width="NaN" fill="rgb(231, 41, 138)"><tspan x="0" y="NaN"/></text><text dominant-baseline="middle" class="data-label" transform="translate(1000000000,1000000000)" pointer-events="none" text-anchor="end" paint-order="stroke" stroke="#ffffff" stroke-width="NaN" fill="rgb(231, 41, 138)"><tspan x="0" y="NaN"/></text><text dominant-baseline="middle" class="data-label" transform="translate(1000000000,1000000000)" pointer-events="none" text-anchor="end" paint-order="stroke" stroke="#ffffff" stroke-width="NaN" fill="rgb(231, 41, 138)"><tspan x="0" y="NaN"/></text><text dominant-baseline="middle" class="data-label" transform="translate(1000000000,1000000000)" pointer-events="none" text-anchor="end" paint-order="stroke" stroke="#ffffff" stroke-width="NaN" fill="rgb(231, 41, 138)"><tspan x="0" y="NaN"/></text><text dominant-baseline="middle" class="data-label" transform="translate(1000000000,1000000000)" pointer-events="none" text-anchor="end" paint-order="stroke" stroke="#ffffff" stroke-width="NaN" fill="rgb(231, 41, 138)"><tspan x="0" y="NaN"/></text></g><g class="boxes"/></svg><svg xmlns="http://www.w3.org/2000/svg" id="fl-layout-svg-screenshot-container" class="flourish-screenshot-svg-container" style="left: 0px; top: 0px; width: 796px; height: 575px; position: absolute;" x="0" y="0"><text x="10.5px" y="10.5px" font-family="&quot;Source Sans Pro&quot;" font-size="28px" font-weight="700" fill="rgb(51, 51, 51)" style="dominant-baseline: text-before-edge;"><tspan dy="7" dx="0" x="10.5" opacity="1">Cantidad de horas mensuales por actividad</tspan></text><text x="10.5px" y="20.296875px" font-family="&quot;Source Sans Pro&quot;" font-size="22.4px" font-weight="400" fill="rgb(51, 51, 51)" style="dominant-baseline: text-before-edge;"><tspan dy="0" dx="0" x="10.5" opacity="1"/></text><text x="10.5px" y="20.296875px" font-family="&quot;Source Sans Pro&quot;" font-size="16.8px" font-weight="400" fill="rgb(51, 51, 51)" style="dominant-baseline: text-before-edge;"><tspan dy="0" dx="0" x="10.5" opacity="1"/></text><text x="0px" y="0px" font-family="&quot;Source Sans Pro&quot;" font-size="14px" font-weight="400" fill="rgb(51, 51, 51)" style="dominant-baseline: text-before-edge;"><tspan dy="0" dx="0" x="0" opacity="1"/></text></svg><svg xmlns="http://www.w3.org/2000/svg" id="fl-legend-discrete-color-0-svg-screenshot-container" class="flourish-screenshot-svg-container" style="left: 0px; top: 0px; width: 796px; height: 575px; position: absolute;" x="0" y="0"><text x="0px" y="0px" font-family="&quot;Source Sans Pro&quot;" font-size="14px" font-weight="700" fill="rgb(51, 51, 51)" style="dominant-baseline: text-before-edge;"><tspan dy="0" dx="0" x="0" opacity="1">A…</tspan></text><text x="0px" y="0px" font-family="&quot;Source Sans Pro&quot;" font-size="14px" font-weight="700" fill="rgb(51, 51, 51)" style="dominant-baseline: text-before-edge;"><tspan dy="0" dx="0" x="0" opacity="1"/></text><circle cx="0px" cy="0px" r="0px" opacity="1" fill="rgb(27, 158, 119)"/><circle cx="0px" cy="0px" r="0px" opacity="1" fill="rgb(217, 95, 2)"/><circle cx="0px" cy="0px" r="0px" opacity="1" fill="rgb(117, 112, 179)"/><circle cx="0px" cy="0px" r="0px" opacity="1" fill="rgb(231, 41, 138)"/><text x="0px" y="0px" font-family="&quot;Source Sans Pro&quot;" font-size="14px" font-weight="400" fill="rgb(51, 51, 51)" style="dominant-baseline: text-before-edge;"><tspan dy="0" dx="2.8" x="0" opacity="1">O…</tspan></text><text x="0px" y="0px" font-family="&quot;Source Sans Pro&quot;" font-size="14px" font-weight="400" fill="rgb(51, 51, 51)" style="dominant-baseline: text-before-edge;"><tspan dy="0" dx="2.8" x="0" opacity="1">E…</tspan></text><text x="0px" y="0px" font-family="&quot;Source Sans Pro&quot;" font-size="14px" font-weight="400" fill="rgb(51, 51, 51)" style="dominant-baseline: text-before-edge;"><tspan dy="0" dx="2.8" x="0" opacity="1">W…</tspan></text><text x="0px" y="0px" font-family="&quot;Source Sans Pro&quot;" font-size="14px" font-weight="400" fill="rgb(51, 51, 51)" style="dominant-baseline: text-before-edge;"><tspan dy="0" dx="2.8" x="0" opacity="1">M…</tspan></text></svg></svg>